<svg width="81" height="75" viewBox="0 0 81 75" fill="none" xmlns="http://www.w3.org/2000/svg">
<g filter="url(#filter0_d_4537_342)">
<path d="M74.8195 54.3772C74.2422 53.4583 73.4875 52.6636 72.5995 52.0397C71.7116 51.4158 70.7081 50.9752 69.6479 50.7435C65.5915 49.8001 62.0735 47.2894 59.8625 43.7601C57.6516 40.2307 56.9276 35.9697 57.8486 31.9082C58.2027 30.3384 58.0851 28.699 57.5105 27.1958C56.9359 25.6926 55.93 24.3927 54.6191 23.4594C53.3081 22.5261 51.7506 22.001 50.1421 21.9499C48.5337 21.8989 46.9461 22.3242 45.5786 23.1725C44.2111 24.0209 43.1248 25.2543 42.456 26.718C41.7873 28.1818 41.5659 29.8104 41.8198 31.3995C42.0736 32.9886 42.7914 34.4673 43.8829 35.6498C44.9743 36.8323 46.3909 37.666 47.9546 38.046C49.9776 38.5023 51.8906 39.3534 53.584 40.5505C55.2774 41.7475 56.7179 43.2671 57.8229 45.0219C58.9279 46.7768 59.6757 48.7325 60.0234 50.7769C60.3712 52.8213 60.312 54.9143 59.8493 56.9358C59.5753 58.239 59.6241 59.5894 59.9916 60.8693C60.3591 62.1492 61.0341 63.3198 61.9577 64.2792C62.8813 65.2385 64.0254 65.9574 65.2905 66.3732C66.5556 66.789 67.9031 66.889 69.2157 66.6647C70.5284 66.4404 71.7662 65.8984 72.8214 65.0861C73.8766 64.2737 74.717 63.2157 75.2696 62.0041C75.8221 60.7924 76.07 59.4641 75.9916 58.1348C75.9131 56.8054 75.5108 55.5154 74.8195 54.3772Z" fill="#414042"/>
<path d="M24.6144 45.3133C26.0429 46.0928 27.6716 46.4278 29.2917 46.2752C30.9119 46.1226 32.4494 45.4894 33.7072 44.4569C34.965 43.4243 35.8856 42.0395 36.3508 40.4802C36.8161 38.9208 36.8048 37.258 36.3184 35.7051C35.7019 33.7249 35.4823 31.6426 35.6722 29.5774C35.8621 27.5122 36.4576 25.5048 37.4249 23.6703C38.3921 21.8358 39.7119 20.2102 41.3086 18.8867C42.9053 17.5632 44.7475 16.568 46.7296 15.9579C48.2669 15.4764 49.6273 14.5509 50.6398 13.298C51.6523 12.0451 52.2716 10.5207 52.4197 8.91658C52.5679 7.31248 52.2383 5.70038 51.4724 4.28328C50.7065 2.86608 49.5385 1.70708 48.1155 0.952178C46.6924 0.197278 45.0779 -0.119921 43.4751 0.0406786C41.8722 0.201179 40.3526 0.832178 39.1075 1.85438C37.8624 2.87648 36.9475 4.24408 36.4778 5.78498C36.0082 7.32588 36.0048 8.97128 36.4681 10.5141C37.6843 14.4971 37.273 18.7998 35.3244 22.4803C33.3757 26.1608 30.0484 28.9194 26.0706 30.1524C24.5003 30.6078 23.1028 31.524 22.0591 32.7826C21.0154 34.0412 20.3735 35.5841 20.2166 37.2115C20.0598 38.839 20.3951 40.4761 21.1792 41.9108C21.9633 43.3456 23.16 44.5119 24.6144 45.2588V45.3133Z" fill="#414042"/>
<path d="M45.6273 43.9794C44.5416 44.0175 43.4745 44.2719 42.4883 44.7276C41.5021 45.1833 40.6168 45.8311 39.8841 46.6333C37.0416 49.6736 33.1109 51.4648 28.9515 51.6153C24.792 51.7658 20.7421 50.2632 17.6873 47.4362C16.898 46.6956 15.9694 46.1193 14.9554 45.7408C13.9415 45.3623 12.8624 45.1892 11.7809 45.2315C10.4497 45.2943 9.15401 45.682 8.00711 46.3607C6.86011 47.0394 5.89681 47.9885 5.20111 49.1251C4.50531 50.2618 4.09841 51.5515 4.01571 52.8816C3.93311 54.2118 4.17721 55.5419 4.72691 56.756C5.27661 57.97 6.11501 59.0311 7.16911 59.8466C8.22321 60.6621 9.4608 61.2071 10.774 61.4342C12.0872 61.6613 13.4361 61.5636 14.7028 61.1495C15.9696 60.7354 17.1157 60.0176 18.0411 59.0586C19.4489 57.5344 21.1435 56.3029 23.0279 55.4347C24.9124 54.5665 26.9496 54.0785 29.0229 53.9989C31.0962 53.9193 33.1649 54.2494 35.1104 54.9705C37.0559 55.6917 38.84 56.7895 40.3605 58.2012C41.3504 59.0957 42.5444 59.7339 43.838 60.0601C45.1317 60.3864 46.4855 60.3907 47.7812 60.0727C49.0769 59.7547 50.2748 59.1241 51.2704 58.236C52.266 57.3479 53.0288 56.2293 53.4922 54.9782C53.9555 53.7271 54.1052 52.3816 53.9283 51.0592C53.7513 49.7369 53.253 48.4781 52.4769 47.3928C51.7009 46.3076 50.6709 45.4291 49.4768 44.834C48.2827 44.239 46.961 43.9455 45.6273 43.9794Z" fill="#414042"/>
</g>
<defs>
<filter id="filter0_d_4537_342" x="0" y="0" width="80.0057" height="74.7815" filterUnits="userSpaceOnUse" color-interpolation-filters="sRGB">
<feFlood flood-opacity="0" result="BackgroundImageFix"/>
<feColorMatrix in="SourceAlpha" type="matrix" values="0 0 0 0 0 0 0 0 0 0 0 0 0 0 0 0 0 0 127 0" result="hardAlpha"/>
<feOffset dy="4"/>
<feGaussianBlur stdDeviation="2"/>
<feComposite in2="hardAlpha" operator="out"/>
<feColorMatrix type="matrix" values="0 0 0 0 0 0 0 0 0 0 0 0 0 0 0 0 0 0 0.25 0"/>
<feBlend mode="normal" in2="BackgroundImageFix" result="effect1_dropShadow_4537_342"/>
<feBlend mode="normal" in="SourceGraphic" in2="effect1_dropShadow_4537_342" result="shape"/>
</filter>
</defs>
</svg>
